<?xml version="1.0" encoding="iso-8859-1"?>
<!-- Generator: Adobe Illustrator 19.2.1, SVG Export Plug-In . SVG Version: 6.00 Build 0)  -->
<svg version="1.1" xmlns="http://www.w3.org/2000/svg" xmlns:xlink="http://www.w3.org/1999/xlink" x="0px" y="0px"
	 viewBox="0 0 32 32" style="enable-background:new 0 0 32 32;" xml:space="preserve">
<g id="Layer_16">
	<path style="fill:#95CC29;" d="M31.413,28.586l-2.28-2.28c0.534-0.989,0.866-2.103,0.866-3.306c0-3.866-3.134-7-7-7
		c-3.866,0-7,3.134-7,7c0,3.866,3.134,7,7,7c1.203,0,2.317-0.331,3.306-0.866l2.28,2.28c0.781,0.781,2.047,0.781,2.828,0
		C32.194,30.633,32.194,29.367,31.413,28.586z M22.999,28c-2.757,0-5-2.242-5-5s2.243-5,5-5s5,2.242,5,5S25.755,28,22.999,28z"/>
	<path style="fill:#666666;" d="M31.985,9.164c0.048-0.289-0.034-0.587-0.223-0.811C31.572,8.13,31.292,8,30.999,8H7.879
		C7.393,5.083,6.962,2.496,6.685,0.836C6.605,0.353,6.188,0,5.699,0C2.914,0,0,0,0,0v2c0,0,2.355,0,4.851,0
		C5.149,3.783,5.563,6.268,6.02,9.012c0,0.051-0.017,0.101-0.008,0.152l2,12c0.011,0.063,0.041,0.117,0.063,0.176
		c0.242,1.45,0.46,2.761,0.639,3.833c0.023,0.137,0.078,0.259,0.15,0.37C8.33,26.223,7.999,27.069,7.999,28
		c0.001,2.209,1.791,3.999,4,4c2.209-0.001,4-1.791,4.001-4c0-1.477,0.001-2.752-1.999-3.445V24c0,0-1.325,0-1.939,0
		c-0.021,0-0.041-0.006-0.063-0.006c-0.022,0-0.042,0.006-0.064,0.006c-0.474,0-0.935,0-1.388,0c-0.103,0-0.214-1.279-0.335-2H14v-2
		H9.879c-0.514-3.081-1.11-6.659-1.667-10h21.606l-1.134,6.802l1.973,0.329L31.985,9.164z M11.967,26c0.02,0,0.043,0,0.063,0
		c1.089,0,1.967,0.904,1.969,1.997c-0.002,1.104-0.896,2-2,2.002c-1.104-0.002-1.998-0.898-2-2.002C10,26.903,10.878,26,11.967,26z"
		/>
	<rect style="fill:none;" width="32" height="32"/>
</g>
<g id="Layer_1">
</g>
</svg>
